<svg width="27" height="18" viewBox="0 0 27 18" fill="none" xmlns="http://www.w3.org/2000/svg">
<path d="M6.83255 17.4491C6.68168 17.5216 6.51513 17.5543 6.34838 17.5442C6.18163 17.5341 6.02012 17.4816 5.87889 17.3915C5.73765 17.3014 5.62128 17.1767 5.54061 17.0289C5.45994 16.8812 5.41759 16.7152 5.41751 16.5465V13.1371C3.90664 12.8827 2.54551 12.0643 1.60384 10.8441C0.662173 9.62381 0.20868 8.09076 0.333229 6.5487C0.457778 5.00663 1.15128 3.5681 2.27631 2.51815C3.40134 1.46821 4.8758 0.883466 6.40751 0.879807C8.02713 0.88016 9.58029 1.5303 10.7254 2.68723C11.8705 3.84417 12.5138 5.41316 12.5138 7.04914C12.5138 10.8425 11.1292 13.4438 9.71543 15.0945C9.14416 15.766 8.49235 16.363 7.77503 16.8718C7.5018 17.0676 7.21655 17.2458 6.92099 17.4051L6.86159 17.4358L6.84311 17.4438L6.83519 17.4478L6.83255 17.4491ZM2.27987 7.04914C2.27987 9.35047 4.12787 11.2171 6.40751 11.2171C6.67007 11.2171 6.92188 11.3225 7.10754 11.51C7.29321 11.6976 7.39751 11.9519 7.39751 12.2171V14.6265C7.65887 14.3918 7.93871 14.1118 8.21591 13.7865C9.36035 12.4518 10.5338 10.3038 10.5338 7.04914C10.5145 5.95645 10.0712 4.91512 9.29932 4.14929C8.52746 3.38346 7.48878 2.95436 6.40685 2.95436C5.32491 2.95436 4.28623 3.38346 3.51438 4.14929C2.74253 4.91512 2.29922 5.95645 2.27987 7.04914ZM21.0226 17.4491C20.8717 17.5216 20.7051 17.5543 20.5384 17.5442C20.3716 17.5341 20.2101 17.4816 20.0689 17.3915C19.9277 17.3014 19.8113 17.1767 19.7306 17.0289C19.6499 16.8812 19.6076 16.7152 19.6075 16.5465V13.1371C18.0966 12.8827 16.7355 12.0643 15.7938 10.8441C14.8522 9.62381 14.3987 8.09076 14.5232 6.5487C14.6478 5.00663 15.3413 3.5681 16.4663 2.51815C17.5913 1.46821 19.0658 0.883466 20.5975 0.879807C22.2171 0.88016 23.7703 1.5303 24.9154 2.68723C26.0605 3.84417 26.7038 5.41316 26.7038 7.04914C26.7038 10.8425 25.3191 13.4438 23.9054 15.0945C23.3342 15.766 22.6823 16.363 21.965 16.8718C21.6735 17.0799 21.3683 17.2679 21.0516 17.4345L21.0331 17.4451L21.0252 17.4478L21.0226 17.4491ZM16.4699 7.04914C16.4699 9.35047 18.3179 11.2171 20.5975 11.2171C20.8601 11.2171 21.1119 11.3225 21.2975 11.51C21.4832 11.6976 21.5875 11.9519 21.5875 12.2171V14.6265C21.8489 14.3918 22.1287 14.1118 22.4059 13.7865C23.5503 12.4518 24.7238 10.3038 24.7238 7.04914C24.7045 5.95645 24.2612 4.91512 23.4893 4.14929C22.7175 3.38346 21.6788 2.95436 20.5968 2.95436C19.5149 2.95436 18.4762 3.38346 17.7044 4.14929C16.9325 4.91512 16.4892 5.95645 16.4699 7.04914Z" fill="#F9B122"/>
</svg>
