<svg width="49" height="49" viewBox="0 0 49 49" fill="none" xmlns="http://www.w3.org/2000/svg">
<path d="M30.5717 44.0372H10.5717V40.0372H30.5717V44.0372ZM44.5717 8.02319L35.1017 19.9332L34.6617 20.4732L23.4017 34.8532C23.03 35.2248 22.5888 35.5196 22.1033 35.7208C21.6177 35.9219 21.0973 36.0254 20.5717 36.0254C20.0461 36.0254 19.5257 35.9219 19.0401 35.7208C18.5545 35.5196 18.1133 35.2248 17.7417 34.8532C17.37 34.4816 17.0752 34.0404 16.8741 33.5548C16.673 33.0692 16.5695 32.5488 16.5695 32.0232C16.5695 31.4976 16.673 30.9772 16.8741 30.4916C17.0752 30.006 17.37 29.5648 17.7417 29.1932L44.5717 8.02319ZM5.86168 14.4912C2.97218 19.1181 1.9331 24.6641 2.95168 30.0232H4.57168V28.0232C4.55179 24.0854 5.73067 20.2349 7.95168 16.9832L5.86168 14.4912ZM24.5717 4.02319C21.5129 4.02302 18.488 4.66299 15.6914 5.90197C12.8949 7.14095 10.3886 8.9515 8.33368 11.2172L10.6217 13.9432C13.3369 11.447 16.8835 10.0498 20.5717 10.0232C24.2799 10.0487 27.8447 11.4597 30.5657 13.9792L37.6657 8.37519C33.8846 5.55022 29.2915 4.02361 24.5717 4.02319ZM38.2317 22.4232L37.7657 22.9972L36.3097 24.8572C36.4808 25.9039 36.5684 26.9626 36.5717 28.0232V30.0232H46.1917C47.1406 25.018 46.3033 19.8385 43.8257 15.3872L38.2317 22.4232Z" fill="#44474A"/>
</svg>
