<svg width="48" height="48" viewBox="0 0 48 48" fill="none" xmlns="http://www.w3.org/2000/svg">
<rect x="0.75" y="0.75" width="46.5" height="46.5" rx="5.25" fill="#F0F0F0"/>
<rect x="0.75" y="0.75" width="46.5" height="46.5" rx="5.25" stroke="white" stroke-width="1.5"/>
<g clip-path="url(#clip0_342_582)">
<mask id="mask0_342_582" style="mask-type:luminance" maskUnits="userSpaceOnUse" x="5" y="5" width="38" height="38">
<path d="M43 5H5V43H43V5Z" fill="white"/>
</mask>
<g mask="url(#mask0_342_582)">
<path d="M24 41.5156C33.6736 41.5156 41.5156 33.6736 41.5156 24C41.5156 14.3264 33.6736 6.48438 24 6.48438C14.3264 6.48438 6.48438 14.3264 6.48438 24C6.48438 33.6736 14.3264 41.5156 24 41.5156Z" fill="black" stroke="black" stroke-linecap="round" stroke-linejoin="round"/>
<path d="M30.2462 31.125V16.875V31.125Z" fill="black"/>
<path d="M30.2462 31.125V16.875" stroke="url(#paint0_linear_342_582)" stroke-miterlimit="1.41421" stroke-linejoin="round"/>
<path fill-rule="evenodd" clip-rule="evenodd" d="M19.2381 16.8771L16.2694 16.875V31.125H19.2381V21.549L34.3586 39.9305C35.191 39.3883 35.9781 38.7825 36.7134 38.1201L19.2381 16.8771Z" fill="url(#paint1_linear_342_582)"/>
</g>
</g>
<defs>
<linearGradient id="paint0_linear_342_582" x1="-nan" y1="-nan" x2="-nan" y2="-nan" gradientUnits="userSpaceOnUse">
<stop stop-color="white"/>
<stop offset="0.609375" stop-color="white" stop-opacity="0.57"/>
<stop offset="0.796875" stop-color="white" stop-opacity="0"/>
<stop offset="1" stop-color="white" stop-opacity="0"/>
</linearGradient>
<linearGradient id="paint1_linear_342_582" x1="28.6016" y1="26.5234" x2="37.1988" y2="36.8231" gradientUnits="userSpaceOnUse">
<stop stop-color="white"/>
<stop offset="1" stop-color="white" stop-opacity="0"/>
</linearGradient>
<clipPath id="clip0_342_582">
<rect width="38" height="38" fill="white" transform="translate(5 5)"/>
</clipPath>
</defs>
</svg>
