<svg width="18" height="19" viewBox="0 0 18 19" fill="none" xmlns="http://www.w3.org/2000/svg">
<path d="M8.99438 2.01143C4.57153 2.01143 0.994385 5.68 0.994385 10.2171C0.994385 13.8057 3.23439 16.8571 6.35438 17.9771C6.77724 18.08 6.70867 17.7829 6.70867 17.5657V16.1371C4.28581 16.4343 4.18296 14.7771 4.02296 14.5029C3.69153 13.9314 2.91438 13.7829 3.15439 13.5086C3.70296 13.2114 4.27438 13.5771 4.92581 14.5714C5.39438 15.2914 6.3201 15.1657 6.78867 15.0514C6.89153 14.6171 7.10867 14.24 7.40581 13.9314C4.89153 13.4743 3.8401 11.8971 3.8401 10.0229C3.8401 9.10857 4.12581 8.27429 4.70867 7.6C4.34296 6.49143 4.74296 5.54286 4.8001 5.39429C5.8401 5.30286 6.91439 6.16 7.00581 6.22857C7.6001 6.06857 8.27438 5.97714 9.02867 5.97714C9.78296 5.97714 10.4572 6.06857 11.063 6.22857C11.2687 6.06857 12.263 5.33714 13.2344 5.41714C13.2915 5.55429 13.6801 6.49143 13.3372 7.58857C13.9201 8.26286 14.2058 9.10857 14.2058 10.0229C14.2058 11.8971 13.1544 13.4743 10.6287 13.9314C10.8462 14.1501 11.0173 14.4106 11.1315 14.6971C11.2458 14.9829 11.303 15.2914 11.303 15.6V17.6686C11.3144 17.8286 11.303 18 11.5658 18C14.7315 16.9029 17.0058 13.8286 17.0058 10.2171C17.0058 5.68 13.4287 2 9.00581 2L8.99438 2.01143Z" fill="white"/>
</svg>
