<svg width="49" height="49" viewBox="0 0 49 49" fill="none" xmlns="http://www.w3.org/2000/svg">
<mask id="mask0_1456_1428" style="mask-type:luminance" maskUnits="userSpaceOnUse" x="0" y="0" width="49" height="49">
<path d="M48.3335 0.523193H0.333496V48.5232H48.3335V0.523193Z" fill="white"/>
</mask>
<g mask="url(#mask0_1456_1428)">
<path d="M29.1335 42.0232H19.5335C10.7535 42.0232 6.8335 38.1032 6.8335 29.3232V19.7232C6.8335 10.9432 10.7535 7.02319 19.5335 7.02319H29.1335C37.9135 7.02319 41.8335 10.9432 41.8335 19.7232V29.3232C41.8335 38.1032 37.9135 42.0232 29.1335 42.0232ZM19.5335 10.0232C12.3735 10.0232 9.8335 12.5632 9.8335 19.7232V29.3232C9.8335 36.4832 12.3735 39.0232 19.5335 39.0232H29.1335C36.2935 39.0232 38.8335 36.4832 38.8335 29.3232V19.7232C38.8335 12.5632 36.2935 10.0232 29.1335 10.0232H19.5335Z" fill="white"/>
<path d="M27.3335 36.0232H21.3335C15.5335 36.0232 12.8335 33.3232 12.8335 27.5232V21.5232C12.8335 15.7232 15.5335 13.0232 21.3335 13.0232H27.3335C33.1335 13.0232 35.8335 15.7232 35.8335 21.5232V27.5232C35.8335 33.3232 33.1335 36.0232 27.3335 36.0232ZM21.3335 16.0232C17.1735 16.0232 15.8335 17.3632 15.8335 21.5232V27.5232C15.8335 31.6832 17.1735 33.0232 21.3335 33.0232H27.3335C31.4935 33.0232 32.8335 31.6832 32.8335 27.5232V21.5232C32.8335 17.3632 31.4935 16.0232 27.3335 16.0232H21.3335Z" fill="white"/>
<path d="M16.3535 10.0232C15.5135 10.0232 14.8535 9.34319 14.8535 8.52319V4.52319C14.8535 3.70319 15.5335 3.02319 16.3535 3.02319C17.1735 3.02319 17.8535 3.70319 17.8535 4.52319V8.52319C17.8535 9.34319 17.1735 10.0232 16.3535 10.0232Z" fill="white"/>
<path d="M24.3335 10.0232C23.5135 10.0232 22.8335 9.34319 22.8335 8.52319V4.52319C22.8335 3.70319 23.5135 3.02319 24.3335 3.02319C25.1535 3.02319 25.8335 3.70319 25.8335 4.52319V8.52319C25.8335 9.34319 25.1535 10.0232 24.3335 10.0232Z" fill="white"/>
<path d="M32.3335 10.0232C31.5135 10.0232 30.8335 9.34319 30.8335 8.52319V4.52319C30.8335 3.70319 31.5135 3.02319 32.3335 3.02319C33.1535 3.02319 33.8335 3.70319 33.8335 4.52319V8.52319C33.8335 9.34319 33.1535 10.0232 32.3335 10.0232Z" fill="white"/>
<path d="M44.3335 18.0232H40.3335C39.5135 18.0232 38.8335 17.3432 38.8335 16.5232C38.8335 15.7032 39.5135 15.0232 40.3335 15.0232H44.3335C45.1535 15.0232 45.8335 15.7032 45.8335 16.5232C45.8335 17.3432 45.1735 18.0232 44.3335 18.0232Z" fill="white"/>
<path d="M44.3335 26.0232H40.3335C39.5135 26.0232 38.8335 25.3432 38.8335 24.5232C38.8335 23.7032 39.5135 23.0232 40.3335 23.0232H44.3335C45.1535 23.0232 45.8335 23.7032 45.8335 24.5232C45.8335 25.3432 45.1735 26.0232 44.3335 26.0232Z" fill="white"/>
<path d="M44.3335 34.0232H40.3335C39.5135 34.0232 38.8335 33.3432 38.8335 32.5232C38.8335 31.7032 39.5135 31.0232 40.3335 31.0232H44.3335C45.1535 31.0232 45.8335 31.7032 45.8335 32.5232C45.8335 33.3432 45.1735 34.0232 44.3335 34.0232Z" fill="white"/>
<path d="M32.3335 46.0232C31.5135 46.0232 30.8335 45.3432 30.8335 44.5232V40.5232C30.8335 39.7032 31.5135 39.0232 32.3335 39.0232C33.1535 39.0232 33.8335 39.7032 33.8335 40.5232V44.5232C33.8335 45.3432 33.1535 46.0232 32.3335 46.0232Z" fill="white"/>
<path d="M24.3535 46.0232C23.5335 46.0232 22.8535 45.3432 22.8535 44.5232V40.5232C22.8535 39.7032 23.5335 39.0232 24.3535 39.0232C25.1735 39.0232 25.8535 39.7032 25.8535 40.5232V44.5232C25.8535 45.3432 25.1735 46.0232 24.3535 46.0232Z" fill="white"/>
<path d="M16.3535 46.0232C15.5335 46.0232 14.8535 45.3432 14.8535 44.5232V40.5232C14.8535 39.7032 15.5335 39.0232 16.3535 39.0232C17.1735 39.0232 17.8535 39.7032 17.8535 40.5232V44.5232C17.8535 45.3432 17.1735 46.0232 16.3535 46.0232Z" fill="white"/>
<path d="M8.3335 18.0232H4.3335C3.5135 18.0232 2.8335 17.3632 2.8335 16.5232C2.8335 15.6832 3.5135 15.0232 4.3335 15.0232H8.3335C9.1535 15.0232 9.8335 15.7032 9.8335 16.5232C9.8335 17.3432 9.1735 18.0232 8.3335 18.0232Z" fill="white"/>
<path d="M8.3335 26.0232H4.3335C3.5135 26.0232 2.8335 25.3432 2.8335 24.5232C2.8335 23.7032 3.5135 23.0232 4.3335 23.0232H8.3335C9.1535 23.0232 9.8335 23.7032 9.8335 24.5232C9.8335 25.3432 9.1735 26.0232 8.3335 26.0232Z" fill="white"/>
<path d="M8.3335 34.0232H4.3335C3.5135 34.0232 2.8335 33.3432 2.8335 32.5232C2.8335 31.7032 3.5135 31.0232 4.3335 31.0232H8.3335C9.1535 31.0232 9.8335 31.7032 9.8335 32.5232C9.8335 33.3432 9.1735 34.0232 8.3335 34.0232Z" fill="white"/>
</g>
</svg>
