<svg width="39" height="44" viewBox="0 0 39 44" fill="none" xmlns="http://www.w3.org/2000/svg">
<path d="M19.6664 43.0248C19.1864 43.0248 18.7066 42.9648 18.2466 42.8248C7.86648 39.9648 0.346436 30.2648 0.346436 19.7448V10.9647C0.346436 8.72472 1.96646 6.30482 4.04646 5.44482L15.1865 0.884756C18.0866 -0.295244 21.2664 -0.295244 24.1464 0.884756L35.2864 5.44482C37.3664 6.30482 38.9866 8.72472 38.9866 10.9647V19.7448C38.9866 30.2448 31.4464 39.9448 21.0864 42.8248C20.6264 42.9648 20.1464 43.0248 19.6664 43.0248ZM19.6664 3.02478C18.5264 3.02478 17.4064 3.24482 16.3264 3.68482L5.18648 8.24474C4.22648 8.64474 3.34644 9.94474 3.34644 10.9847V19.7648C3.34644 28.9448 9.94646 37.4248 19.0464 39.9448C19.4464 40.0648 19.8864 40.0648 20.2864 39.9448C29.3864 37.4248 35.9866 28.9448 35.9866 19.7648V10.9847C35.9866 9.94474 35.1064 8.64474 34.1464 8.24474L23.0066 3.68482C21.9266 3.24482 20.8064 3.02478 19.6664 3.02478Z" fill="white"/>
<path d="M19.6667 24.0232C16.6267 24.0232 14.1667 21.5632 14.1667 18.5232C14.1667 15.4832 16.6267 13.0232 19.6667 13.0232C22.7067 13.0232 25.1667 15.4832 25.1667 18.5232C25.1667 21.5632 22.7067 24.0232 19.6667 24.0232ZM19.6667 16.0232C18.2867 16.0232 17.1667 17.1432 17.1667 18.5232C17.1667 19.9032 18.2867 21.0232 19.6667 21.0232C21.0467 21.0232 22.1667 19.9032 22.1667 18.5232C22.1667 17.1432 21.0467 16.0232 19.6667 16.0232Z" fill="white"/>
<path d="M19.6667 30.0232C18.8467 30.0232 18.1667 29.3432 18.1667 28.5232V22.5232C18.1667 21.7032 18.8467 21.0232 19.6667 21.0232C20.4867 21.0232 21.1667 21.7032 21.1667 22.5232V28.5232C21.1667 29.3432 20.4867 30.0232 19.6667 30.0232Z" fill="white"/>
</svg>
