<svg width="25" height="25" viewBox="0 0 25 25" fill="none" xmlns="http://www.w3.org/2000/svg">
<path fill-rule="evenodd" clip-rule="evenodd" d="M13.4321 6.70803C12.6958 6.70785 11.9745 6.91555 11.351 7.30722C10.7276 7.6989 10.2274 8.25864 9.90808 8.92203C9.82606 9.0919 9.68305 9.22463 9.50754 9.29376C9.33203 9.36289 9.13691 9.36334 8.96108 9.29503C8.36208 9.06317 7.71938 8.96605 7.07861 9.01056C6.43785 9.05506 5.81474 9.24012 5.25355 9.55257C4.69236 9.86502 4.20686 10.2972 3.83151 10.8184C3.45617 11.3397 3.2002 11.9371 3.08178 12.5684C2.96336 13.1997 2.9854 13.8494 3.14633 14.4712C3.30725 15.093 3.60313 15.6718 4.01293 16.1664C4.42273 16.661 4.93641 17.0592 5.51749 17.3329C6.09856 17.6066 6.73277 17.749 7.37508 17.75H19.0231C19.4469 17.7499 19.8657 17.6593 20.2517 17.4843C20.6377 17.3093 20.9819 17.054 21.2612 16.7353C21.5406 16.4167 21.7488 16.0421 21.8718 15.6366C21.9949 15.231 22.0299 14.8039 21.9747 14.3837C21.9194 13.9636 21.7751 13.56 21.5514 13.2001C21.3277 12.8402 21.0298 12.5321 20.6775 12.2965C20.3252 12.061 19.9267 11.9033 19.5086 11.8341C19.0905 11.7648 18.6625 11.7856 18.2531 11.895C18.1348 11.9267 18.0105 11.929 17.8912 11.9016C17.7718 11.8742 17.661 11.818 17.5684 11.7379C17.4757 11.6578 17.4041 11.5562 17.3598 11.4421C17.3155 11.3279 17.2998 11.2047 17.3141 11.083C17.3321 10.9304 17.3411 10.7754 17.3411 10.618C17.3411 10.1046 17.2399 9.59612 17.0434 9.12174C16.847 8.64736 16.5589 8.21632 16.1959 7.85325C15.8328 7.49017 15.4018 7.20216 14.9274 7.00566C14.453 6.80917 13.9445 6.70803 13.4311 6.70803M8.87908 7.69403C9.4962 6.73359 10.4013 5.99299 11.4649 5.57821C12.5285 5.16343 13.6961 5.09574 14.8005 5.38482C15.9049 5.67391 16.8895 6.30495 17.6135 7.18764C18.3375 8.07033 18.7637 9.15941 18.8311 10.299C18.8944 10.2964 18.9581 10.295 19.0221 10.295C20.198 10.3126 21.3198 10.7921 22.1452 11.6299C22.9705 12.4676 23.4332 13.5965 23.4332 14.7725C23.4332 15.9486 22.9705 17.0774 22.1452 17.9152C21.3198 18.753 20.198 19.2325 19.0221 19.25H7.37508C6.54014 19.2489 5.71503 19.0699 4.95474 18.7248C4.19445 18.3797 3.51644 17.8766 2.9659 17.2489C2.41537 16.6211 2.00495 15.8833 1.76201 15.0845C1.51907 14.2857 1.44918 13.4443 1.55701 12.6163C1.66484 11.7884 1.9479 10.9929 2.38734 10.283C2.82677 9.57304 3.41248 8.96491 4.10543 8.49914C4.79837 8.03337 5.58264 7.72065 6.40595 7.58182C7.22927 7.44299 8.07271 7.48125 8.88008 7.69403" fill="#44474A"/>
</svg>
